<?xml version="1.0" encoding="UTF-8" standalone="no"?>
<!-- Created with Inkscape (http://www.inkscape.org/) -->

<svg
   width="179.444"
   height="158.36661"
   viewBox="0 0 179.444 158.36661"
   version="1.1"
   id="svg5"
   inkscape:version="1.2.1 (9c6d41e4, 2022-07-14)"
   sodipodi:docname="typed-pid-maker-full.svg"
   xmlns:inkscape="http://www.inkscape.org/namespaces/inkscape"
   xmlns:sodipodi="http://sodipodi.sourceforge.net/DTD/sodipodi-0.dtd"
   xmlns="http://www.w3.org/2000/svg"
   xmlns:svg="http://www.w3.org/2000/svg">
  <sodipodi:namedview
     id="namedview7"
     pagecolor="#ffffff"
     bordercolor="#000000"
     borderopacity="0.25"
     inkscape:showpageshadow="2"
     inkscape:pageopacity="0.0"
     inkscape:pagecheckerboard="0"
     inkscape:deskcolor="#d1d1d1"
     inkscape:document-units="px"
     showgrid="false"
     inkscape:connector-spacing="3"
     inkscape:zoom="2.760145"
     inkscape:cx="71.010762"
     inkscape:cy="96.552898"
     inkscape:window-width="1440"
     inkscape:window-height="847"
     inkscape:window-x="63"
     inkscape:window-y="25"
     inkscape:window-maximized="0"
     inkscape:current-layer="layer1" />
  <defs
     id="defs2" />
  <g
     inkscape:label="Ebene 1"
     inkscape:groupmode="layer"
     id="layer1"
     transform="translate(-10.555991,-10.582349)">
    <g
       aria-label="PID"
       id="text186"
       style="font-size:37.3333px;fill:#904885;stroke-width:0"
       transform="translate(0,0.72459961)">
      <path
         d="m 87.604362,149.28426 q 0,1.80469 -0.63802,3.35417 -0.619791,1.53124 -1.749999,2.66145 -1.403644,1.40365 -3.317705,2.11458 -1.914061,0.69271 -4.830725,0.69271 h -3.609372 v 10.11718 h -3.609372 v -27.14321 h 7.364577 q 2.442706,0 4.138017,0.41927 1.695311,0.40105 3.00781,1.27604 1.549478,1.03907 2.388019,2.58854 0.85677,1.54948 0.85677,3.91927 z m -3.755205,0.0911 q 0,-1.40365 -0.492187,-2.44271 -0.492187,-1.03906 -1.494791,-1.69531 -0.874999,-0.5651 -2.005206,-0.80208 -1.111978,-0.25521 -2.825519,-0.25521 h -3.572913 v 10.84634 h 3.044268 q 2.187498,0 3.554684,-0.38281 1.367187,-0.40104 2.223957,-1.25781 0.85677,-0.875 1.203124,-1.84114 0.364583,-0.96615 0.364583,-2.16927 z"
         id="path366" />
      <path
         d="M 101.93248,168.22435 H 91.213735 v -2.77083 h 3.554684 v -21.60155 h -3.554684 v -2.77083 h 10.718745 v 2.77083 h -3.554689 v 21.60155 h 3.554689 z"
         id="path368" />
      <path
         d="m 131.00797,154.68009 q 0,3.70052 -1.62239,6.70833 -1.60417,3.00781 -4.28385,4.66666 -1.85938,1.14844 -4.15625,1.65885 -2.27864,0.51042 -6.01562,0.51042 h -6.85416 v -27.14321 h 6.78125 q 3.97395,0 6.30728,0.58334 2.35156,0.5651 3.97396,1.5677 2.77083,1.73177 4.32031,4.61198 1.54947,2.8802 1.54947,6.83593 z m -3.77343,-0.0547 q 0,-3.1901 -1.11198,-5.3776 -1.11198,-2.18749 -3.31771,-3.44531 -1.60416,-0.91145 -3.40885,-1.25781 -1.80468,-0.36458 -4.32031,-0.36458 h -3.39062 v 20.94529 h 3.39062 q 2.60677,0 4.53906,-0.38281 1.95052,-0.38281 3.57292,-1.42187 2.02343,-1.29427 3.02604,-3.40885 1.02083,-2.11458 1.02083,-5.28646 z"
         id="path370" />
    </g>
    <g
       aria-label="create"
       id="text240"
       style="font-size:18.6667px;fill:#10739f;stroke-width:0"
       transform="translate(0,0.72459961)">
      <path
         d="m 79.943323,43.112295 q -0.856773,0.410157 -1.631514,0.638022 -0.765626,0.227865 -1.631513,0.227865 -1.102867,0 -2.023441,-0.319011 -0.920575,-0.328126 -1.576826,-0.984377 -0.665366,-0.656251 -1.02995,-1.658857 -0.364584,-1.002606 -0.364584,-2.342452 0,-2.497401 1.36719,-3.919278 1.376305,-1.421878 3.627611,-1.421878 0.875001,0 1.713545,0.246094 0.847657,0.246094 1.549482,0.601564 v 1.904951 h -0.09115 q -0.783856,-0.610678 -1.622399,-0.938804 -0.829429,-0.328125 -1.622399,-0.328125 -1.458336,0 -2.305994,0.984377 -0.838543,0.975262 -0.838543,2.871099 0,1.841149 0.820314,2.83464 0.829429,0.984377 2.324223,0.984377 0.519532,0 1.057294,-0.136719 0.537761,-0.136719 0.966147,-0.35547 0.373699,-0.191406 0.701824,-0.401042 0.328126,-0.21875 0.519533,-0.373699 h 0.09115 z"
         id="path336" />
      <path
         d="m 88.492817,35.437802 h -0.09115 q -0.382813,-0.09115 -0.747397,-0.127605 -0.355469,-0.04557 -0.847658,-0.04557 -0.79297,0 -1.531253,0.35547 -0.738282,0.346354 -1.421877,0.902345 V 43.75032 H 82.139941 V 33.569309 h 1.713545 v 1.503909 q 1.020835,-0.820314 1.795576,-1.157555 0.783856,-0.346354 1.595055,-0.346354 0.446615,0 0.647137,0.02734 0.200521,0.01823 0.601563,0.08203 z"
         id="path338" />
      <path
         d="m 98.628253,38.837547 h -7.501316 q 0,0.938804 0.282553,1.640628 0.282552,0.69271 0.774741,1.139325 0.473959,0.437501 1.121095,0.656251 0.656252,0.218751 1.440107,0.218751 1.039065,0 2.087243,-0.410157 1.057294,-0.419272 1.503909,-0.820314 h 0.09115 v 1.868493 q -0.865887,0.364584 -1.768232,0.610678 -0.902345,0.246094 -1.895837,0.246094 -2.533858,0 -3.955736,-1.36719 -1.421878,-1.376304 -1.421878,-3.901048 0,-2.497401 1.358076,-3.964851 1.36719,-1.467451 3.591152,-1.467451 2.0599,0 3.171881,1.203127 1.121096,1.203127 1.121096,3.417975 z m -1.667972,-1.312502 q -0.0091,-1.348961 -0.683595,-2.087243 -0.665366,-0.738283 -2.032556,-0.738283 -1.376304,0 -2.196618,0.811199 -0.8112,0.8112 -0.920575,2.014327 z"
         id="path340" />
      <path
         d="m 109.13739,43.750317 h -1.70443 v -1.084638 q -0.22787,0.154948 -0.6198,0.437501 -0.38281,0.273438 -0.74739,0.437501 -0.42839,0.209636 -0.98438,0.346355 -0.55599,0.145833 -1.30339,0.145833 -1.3763,0 -2.33334,-0.91146 -0.95703,-0.91146 -0.95703,-2.324223 0,-1.157554 0.49219,-1.868493 0.5013,-0.720053 1.42188,-1.13021 0.92969,-0.410157 2.23307,-0.555991 1.30339,-0.145833 2.79819,-0.21875 v -0.264323 q 0,-0.583335 -0.20964,-0.966148 -0.20052,-0.382813 -0.58333,-0.601564 -0.36459,-0.209635 -0.87501,-0.282552 -0.51041,-0.07292 -1.0664,-0.07292 -0.67448,0 -1.50391,0.182292 -0.82943,0.173177 -1.71355,0.510418 h -0.0911 v -1.740889 q 0.5013,-0.136719 1.44922,-0.300782 0.94792,-0.164063 1.86849,-0.164063 1.07552,0 1.86849,0.182292 0.80209,0.173178 1.38542,0.601564 0.57422,0.419272 0.875,1.084637 0.30079,0.665366 0.30079,1.649743 z m -1.70443,-2.506515 v -2.834641 q -0.78386,0.04557 -1.85027,0.136719 -1.05729,0.09115 -1.67708,0.264324 -0.73829,0.209635 -1.19402,0.656251 -0.45573,0.437501 -0.45573,1.212241 0,0.875002 0.52865,1.321617 0.52865,0.437501 1.61328,0.437501 0.90235,0 1.64975,-0.346355 0.74739,-0.355469 1.38542,-0.847657 z"
         id="path342" />
      <path
         d="m 117.72334,43.659171 q -0.48307,0.127604 -1.05729,0.209635 -0.56511,0.08203 -1.01172,0.08203 -1.5586,0 -2.3698,-0.838543 -0.8112,-0.838544 -0.8112,-2.688807 v -5.414073 h -1.15755 v -1.440106 h 1.15755 V 30.64352 h 1.71355 v 2.925787 h 3.53646 v 1.440106 h -3.53646 v 4.639332 q 0,0.802084 0.0365,1.257814 0.0365,0.446616 0.25521,0.838544 0.20052,0.364584 0.54688,0.537761 0.35547,0.164063 1.07552,0.164063 0.41927,0 0.875,-0.11849 0.45573,-0.127604 0.65625,-0.209636 h 0.0911 z"
         id="path344" />
      <path
         d="m 128.3145,38.837547 h -7.50131 q 0,0.938804 0.28255,1.640628 0.28255,0.69271 0.77474,1.139325 0.47396,0.437501 1.1211,0.656251 0.65625,0.218751 1.4401,0.218751 1.03907,0 2.08725,-0.410157 1.05729,-0.419272 1.50391,-0.820314 h 0.0911 v 1.868493 q -0.86588,0.364584 -1.76823,0.610678 -0.90235,0.246094 -1.89584,0.246094 -2.53386,0 -3.95573,-1.36719 -1.42188,-1.376304 -1.42188,-3.901048 0,-2.497401 1.35807,-3.964851 1.36719,-1.467451 3.59116,-1.467451 2.0599,0 3.17188,1.203127 1.12109,1.203127 1.12109,3.417975 z m -1.66797,-1.312502 q -0.009,-1.348961 -0.68359,-2.087243 -0.66537,-0.738283 -2.03256,-0.738283 -1.3763,0 -2.19662,0.811199 -0.8112,0.8112 -0.92057,2.014327 z"
         id="path346" />
    </g>
    <g
       aria-label="validate"
       id="text244"
       style="font-size:18.6667px;fill:#39989f;stroke-width:0"
       transform="translate(0,0.72459961)">
      <path
         d="M 20.490904,55.210258 16.371105,65.391266 H 14.648446 L 10.555991,55.210258 h 1.859378 l 3.153651,8.102879 3.126308,-8.102879 z"
         id="path319" />
      <path
         d="m 30.279985,65.391266 h -1.704431 v -1.084638 q -0.227865,0.154949 -0.619792,0.437501 -0.382814,0.273438 -0.747397,0.437501 -0.428387,0.209636 -0.984377,0.346355 -0.555991,0.145833 -1.303388,0.145833 -1.376305,0 -2.333338,-0.91146 -0.957033,-0.911459 -0.957033,-2.324222 0,-1.157555 0.492189,-1.868493 0.501303,-0.720054 1.421877,-1.130211 0.92969,-0.410157 2.233077,-0.55599 1.303388,-0.145834 2.798182,-0.218751 v -0.264323 q 0,-0.583335 -0.209635,-0.966148 -0.200522,-0.382813 -0.583335,-0.601563 -0.364584,-0.209636 -0.875001,-0.282553 -0.510418,-0.07292 -1.066408,-0.07292 -0.674481,0 -1.503909,0.182292 -0.829429,0.173178 -1.713545,0.510418 h -0.09115 v -1.740889 q 0.501303,-0.136719 1.449221,-0.300781 0.947919,-0.164063 1.868493,-0.164063 1.075523,0 1.868493,0.182292 0.802085,0.173177 1.385419,0.601563 0.57422,0.419272 0.875002,1.084638 0.300782,0.665365 0.300782,1.649742 z M 28.575554,62.884751 V 60.05011 q -0.783855,0.04557 -1.850263,0.136719 -1.057294,0.09115 -1.677087,0.264324 -0.738282,0.209636 -1.194012,0.656251 -0.45573,0.437501 -0.45573,1.212242 0,0.875001 0.528647,1.321617 0.528646,0.4375 1.613284,0.4375 0.902345,0 1.649742,-0.346354 0.747397,-0.35547 1.385419,-0.847658 z"
         id="path321" />
      <path
         d="M 35.311244,65.391266 H 33.597699 V 51.208949 h 1.713545 z"
         id="path323" />
      <path
         d="M 40.543025,53.505828 H 38.61073 v -1.777347 h 1.932295 z M 40.43365,65.391266 H 38.720105 V 55.210258 h 1.713545 z"
         id="path325" />
      <path
         d="M 52.082105,65.391266 H 50.36856 v -1.066408 q -0.738282,0.638022 -1.540367,0.993491 -0.802085,0.355469 -1.740889,0.355469 -1.822919,0 -2.898442,-1.403648 -1.066408,-1.403648 -1.066408,-3.891934 0,-1.294273 0.364584,-2.305994 0.373698,-1.01172 1.002606,-1.722659 0.619792,-0.69271 1.440106,-1.057294 0.829429,-0.364584 1.713545,-0.364584 0.802085,0 1.421878,0.173178 0.619792,0.164063 1.303387,0.519532 v -4.411466 h 1.713545 z M 50.36856,62.884751 v -5.842459 q -0.692709,-0.309896 -1.239585,-0.428386 -0.546876,-0.11849 -1.194013,-0.11849 -1.440107,0 -2.242191,1.002606 -0.802085,1.002606 -0.802085,2.843756 0,1.813805 0.619793,2.761723 0.619792,0.938804 1.986982,0.938804 0.729168,0 1.476566,-0.319011 0.747397,-0.328125 1.394533,-0.838543 z"
         id="path327" />
      <path
         d="m 63.36598,65.391266 h -1.70443 v -1.084638 q -0.227865,0.154949 -0.619793,0.437501 -0.382813,0.273438 -0.747397,0.437501 -0.428386,0.209636 -0.984377,0.346355 -0.55599,0.145833 -1.303387,0.145833 -1.376305,0 -2.333338,-0.91146 -0.957033,-0.911459 -0.957033,-2.324222 0,-1.157555 0.492188,-1.868493 0.501303,-0.720054 1.421878,-1.130211 0.929689,-0.410157 2.233077,-0.55599 1.303388,-0.145834 2.798182,-0.218751 v -0.264323 q 0,-0.583335 -0.209636,-0.966148 -0.200521,-0.382813 -0.583334,-0.601563 -0.364584,-0.209636 -0.875002,-0.282553 -0.510417,-0.07292 -1.066408,-0.07292 -0.67448,0 -1.503909,0.182292 -0.829428,0.173178 -1.713545,0.510418 h -0.09115 v -1.740889 q 0.501303,-0.136719 1.449222,-0.300781 0.947918,-0.164063 1.868493,-0.164063 1.075523,0 1.868493,0.182292 0.802085,0.173177 1.385419,0.601563 0.57422,0.419272 0.875002,1.084638 0.300781,0.665365 0.300781,1.649742 z M 61.66155,62.884751 V 60.05011 q -0.783855,0.04557 -1.850264,0.136719 -1.057293,0.09115 -1.677086,0.264324 -0.738283,0.209636 -1.194013,0.656251 -0.45573,0.437501 -0.45573,1.212242 0,0.875001 0.528647,1.321617 0.528647,0.4375 1.613284,0.4375 0.902346,0 1.649743,-0.346354 0.747397,-0.35547 1.385419,-0.847658 z"
         id="path329" />
      <path
         d="m 71.951932,65.30012 q -0.483074,0.127604 -1.057293,0.209636 -0.565106,0.08203 -1.011721,0.08203 -1.558597,0 -2.369796,-0.838543 -0.811199,-0.838543 -0.811199,-2.688807 v -5.414072 h -1.157555 v -1.440107 h 1.157555 V 52.28447 h 1.713544 v 2.925787 h 3.536465 v 1.440107 h -3.536465 v 4.639331 q 0,0.802085 0.03646,1.257815 0.03646,0.446615 0.255209,0.838543 0.200521,0.364584 0.546876,0.537761 0.355469,0.164063 1.075522,0.164063 0.419272,0 0.875002,-0.11849 0.45573,-0.127604 0.656251,-0.209635 h 0.09115 z"
         id="path331" />
      <path
         d="m 82.543099,60.478497 h -7.501316 q 0,0.938803 0.282553,1.640628 0.282553,0.692709 0.774741,1.139325 0.473959,0.4375 1.121096,0.656251 0.656251,0.21875 1.440107,0.21875 1.039064,0 2.087243,-0.410157 1.057293,-0.419271 1.503909,-0.820314 h 0.09115 v 1.868493 q -0.865887,0.364584 -1.768232,0.610678 -0.902346,0.246094 -1.895837,0.246094 -2.533859,0 -3.955737,-1.36719 -1.421877,-1.376304 -1.421877,-3.901048 0,-2.497401 1.358075,-3.964851 1.36719,-1.467451 3.591153,-1.467451 2.059899,0 3.17188,1.203127 1.121096,1.203128 1.121096,3.417975 z m -1.667972,-1.312503 q -0.0091,-1.348961 -0.683595,-2.087243 -0.665365,-0.738283 -2.032555,-0.738283 -1.376305,0 -2.196619,0.8112 -0.811199,0.811199 -0.920575,2.014326 z"
         id="path333" />
    </g>
    <g
       aria-label="maintain"
       id="text248"
       style="font-size:18.6667px;fill:#56517f;stroke-width:0"
       transform="translate(0,0.72459961)">
      <path
         d="m 126.3529,23.520535 h -1.71355 v -5.796886 q 0,-0.656251 -0.0638,-1.266929 -0.0547,-0.610679 -0.24609,-0.975262 -0.20964,-0.391928 -0.60157,-0.592449 -0.39193,-0.200522 -1.13021,-0.200522 -0.72005,0 -1.4401,0.364584 -0.72006,0.35547 -1.44011,0.91146 0.0273,0.209636 0.0456,0.492189 0.0182,0.273438 0.0182,0.546876 v 6.516939 h -1.71354 v -5.796886 q 0,-0.67448 -0.0638,-1.276044 -0.0547,-0.610678 -0.24609,-0.975262 -0.20964,-0.391928 -0.60156,-0.583334 -0.39193,-0.200522 -1.13021,-0.200522 -0.70183,0 -1.41277,0.346355 -0.70182,0.346355 -1.40365,0.884116 v 7.601577 H 111.4961 V 13.339527 h 1.71354 v 1.13021 q 0.80209,-0.665366 1.59506,-1.039064 0.80208,-0.373699 1.70443,-0.373699 1.03906,0 1.75912,0.437501 0.72916,0.437501 1.08463,1.212242 1.03907,-0.875002 1.89584,-1.257815 0.85677,-0.391928 1.83204,-0.391928 1.67708,0 2.47005,1.020835 0.80209,1.011721 0.80209,2.834641 z"
         id="path349" />
      <path
         d="m 137.56385,23.520535 h -1.70443 v -1.084638 q -0.22786,0.154948 -0.61979,0.437501 -0.38281,0.273438 -0.7474,0.437501 -0.42838,0.209636 -0.98437,0.346355 -0.55599,0.145833 -1.30339,0.145833 -1.3763,0 -2.33334,-0.91146 -0.95703,-0.91146 -0.95703,-2.324223 0,-1.157554 0.49219,-1.868493 0.5013,-0.720053 1.42188,-1.13021 0.92968,-0.410157 2.23307,-0.555991 1.30339,-0.145833 2.79818,-0.21875 v -0.264324 q 0,-0.583334 -0.20963,-0.966147 -0.20052,-0.382813 -0.58334,-0.601564 -0.36458,-0.209635 -0.875,-0.282552 -0.51042,-0.07292 -1.06641,-0.07292 -0.67448,0 -1.5039,0.182292 -0.82943,0.173177 -1.71355,0.510418 h -0.0911 v -1.740889 q 0.50131,-0.136719 1.44923,-0.300782 0.94791,-0.164063 1.86849,-0.164063 1.07552,0 1.86849,0.182292 0.80209,0.173178 1.38542,0.601564 0.57422,0.419272 0.875,1.084637 0.30078,0.665366 0.30078,1.649743 z m -1.70443,-2.506515 v -2.834641 q -0.78385,0.04557 -1.85026,0.136719 -1.05729,0.09115 -1.67709,0.264323 -0.73828,0.209636 -1.19401,0.656252 -0.45573,0.4375 -0.45573,1.212241 0,0.875002 0.52865,1.321617 0.52865,0.437501 1.61328,0.437501 0.90235,0 1.64975,-0.346355 0.74739,-0.355469 1.38541,-0.847657 z"
         id="path351" />
      <path
         d="m 142.70449,11.635096 h -1.9323 V 9.8577494 h 1.9323 z m -0.10938,11.885439 h -1.71354 V 13.339527 h 1.71354 z"
         id="path353" />
      <path
         d="m 154.49878,23.520535 h -1.71354 v -5.796886 q 0,-0.701824 -0.082,-1.312502 -0.082,-0.619793 -0.30079,-0.966148 -0.22786,-0.382813 -0.65625,-0.565105 -0.42838,-0.191407 -1.11198,-0.191407 -0.70182,0 -1.46745,0.346355 -0.76562,0.346355 -1.46745,0.884116 v 7.601577 h -1.71354 V 13.339527 h 1.71354 v 1.13021 q 0.80209,-0.665366 1.65886,-1.039064 0.85677,-0.373699 1.75912,-0.373699 1.64974,0 2.51563,0.993491 0.86588,0.993492 0.86588,2.861985 z"
         id="path355" />
      <path
         d="m 163.08473,23.429389 q -0.48307,0.127604 -1.05729,0.209635 -0.56511,0.08203 -1.01172,0.08203 -1.5586,0 -2.3698,-0.838543 -0.8112,-0.838544 -0.8112,-2.688807 v -5.414073 h -1.15755 v -1.440106 h 1.15755 V 10.41374 h 1.71355 v 2.925787 h 3.53646 v 1.440106 h -3.53646 v 4.639332 q 0,0.802084 0.0365,1.257814 0.0365,0.446616 0.25521,0.838544 0.20052,0.364584 0.54687,0.537761 0.35547,0.164063 1.07552,0.164063 0.41928,0 0.87501,-0.11849 0.45573,-0.127604 0.65625,-0.209636 h 0.0911 z"
         id="path357" />
      <path
         d="m 173.06522,23.520535 h -1.70443 v -1.084638 q -0.22787,0.154948 -0.61979,0.437501 -0.38282,0.273438 -0.7474,0.437501 -0.42839,0.209636 -0.98438,0.346355 -0.55599,0.145833 -1.30339,0.145833 -1.3763,0 -2.33333,-0.91146 -0.95704,-0.91146 -0.95704,-2.324223 0,-1.157554 0.49219,-1.868493 0.5013,-0.720053 1.42188,-1.13021 0.92969,-0.410157 2.23308,-0.555991 1.30338,-0.145833 2.79818,-0.21875 v -0.264324 q 0,-0.583334 -0.20964,-0.966147 -0.20052,-0.382813 -0.58333,-0.601564 -0.36459,-0.209635 -0.875,-0.282552 -0.51042,-0.07292 -1.06641,-0.07292 -0.67448,0 -1.50391,0.182292 -0.82943,0.173177 -1.71355,0.510418 h -0.0911 v -1.740889 q 0.5013,-0.136719 1.44922,-0.300782 0.94792,-0.164063 1.86849,-0.164063 1.07553,0 1.8685,0.182292 0.80208,0.173178 1.38541,0.601564 0.57422,0.419272 0.87501,1.084637 0.30078,0.665366 0.30078,1.649743 z m -1.70443,-2.506515 v -2.834641 q -0.78386,0.04557 -1.85027,0.136719 -1.05729,0.09115 -1.67708,0.264323 -0.73828,0.209636 -1.19401,0.656252 -0.45573,0.4375 -0.45573,1.212241 0,0.875002 0.52864,1.321617 0.52865,0.437501 1.61329,0.437501 0.90234,0 1.64974,-0.346355 0.7474,-0.355469 1.38542,-0.847657 z"
         id="path359" />
      <path
         d="m 178.20586,11.635096 h -1.9323 V 9.8577494 h 1.9323 z m -0.10938,11.885439 h -1.71354 V 13.339527 h 1.71354 z"
         id="path361" />
      <path
         d="m 190.00015,23.520535 h -1.71355 v -5.796886 q 0,-0.701824 -0.082,-1.312502 -0.082,-0.619793 -0.30078,-0.966148 -0.22786,-0.382813 -0.65625,-0.565105 -0.42839,-0.191407 -1.11198,-0.191407 -0.70183,0 -1.46745,0.346355 -0.76563,0.346355 -1.46745,0.884116 v 7.601577 h -1.71355 V 13.339527 h 1.71355 v 1.13021 q 0.80208,-0.665366 1.65885,-1.039064 0.85678,-0.373699 1.75912,-0.373699 1.64974,0 2.51563,0.993491 0.86589,0.993492 0.86589,2.861985 z"
         id="path363" />
    </g>
    <path
       style="fill:none;fill-opacity:1;stroke:#56517e;stroke-width:3;stroke-dasharray:none;stroke-opacity:1"
       d="m 100,132.0962 c 0,-67.237023 50.74812,-17.5674 50.74812,-90.551697"
       id="path10272"
       sodipodi:nodetypes="cc" />
    <path
       style="fill:none;fill-opacity:1;stroke:#10739e;stroke-width:3;stroke-dasharray:none;stroke-opacity:1"
       d="m 100,132.0962 -10e-7,-64.162651"
       id="path9358"
       sodipodi:nodetypes="cc" />
    <path
       style="fill:none;fill-opacity:1;stroke:#39989f;stroke-width:3;stroke-dasharray:none;stroke-opacity:1"
       d="M 100,132.0962 C 99.999999,93.073056 46.549545,121.56777 46.549545,83.900983"
       id="path3072"
       sodipodi:nodetypes="cc" />
    <rect
       style="fill:#39989f;stroke:none;stroke-width:0;stroke-dasharray:none"
       id="rect460"
       width="17"
       height="17"
       x="38.049545"
       y="75.400986" />
    <circle
       style="fill:#56517e;stroke:none;stroke-width:0;stroke-dasharray:none"
       id="path1165"
       cx="150.74812"
       cy="41.544502"
       r="8.5" />
    <path
       style="fill:#10739e;stroke:none;stroke-width:0.77504;stroke-dasharray:none;stroke-opacity:1"
       d="m 99.989475,54.709718 7.826305,16.803174 h -7.826305 -7.887527 z"
       id="path1262"
       sodipodi:nodetypes="ccccc" />
  </g>
</svg>
